<?xml version="1.0" encoding="UTF-8" standalone="no"?>
<svg
   version="1.0"
   width="511.625pt"
   height="447.83087pt"
   viewBox="0 0 511.625 447.83087"
   preserveAspectRatio="xMidYMid meet"
   id="svg8"
   sodipodi:docname="17ef52f87e73c2a83e91ba6138b84c06.svg"
   xmlns:inkscape="http://www.inkscape.org/namespaces/inkscape"
   xmlns:sodipodi="http://sodipodi.sourceforge.net/DTD/sodipodi-0.dtd"
   xmlns="http://www.w3.org/2000/svg"
   xmlns:svg="http://www.w3.org/2000/svg">
  <defs
     id="defs12" />
  <sodipodi:namedview
     id="namedview10"
     pagecolor="#ffffff"
     bordercolor="#666666"
     borderopacity="1.0"
     inkscape:pageshadow="2"
     inkscape:pageopacity="0.0"
     inkscape:pagecheckerboard="0"
     inkscape:document-units="pt" />
  <metadata
     id="metadata2">
Created by potrace 1.16, written by Peter Selinger 2001-2019
</metadata>
  <g
     transform="matrix(0.1,0,0,-0.1,-0.375,480.00762)"
     fill="#000000"
     stroke="none"
     id="g6">
    <path
       d="M 2055,4793 C 1266,4724 584,4264 230,3561 136,3373 67,3159 24,2925 -3,2781 -3,2339 24,2195 141,1555 476,1040 1001,691 1637,268 2459,204 3163,522 c 340,154 604,218 897,219 282,1 467,-42 715,-168 149,-75 193,-83 262,-44 54,31 83,84 83,150 0,98 -32,131 -212,220 -266,131 -461,179 -780,189 l -198,7 56,70 c 254,316 412,692 469,1113 19,146 19,417 0,568 -112,854 -690,1560 -1500,1833 -289,97 -617,139 -900,114 z m 317,-582 c 118,-40 194,-98 257,-193 182,-272 38,-639 -284,-723 -154,-40 -327,10 -445,128 -297,297 -89,803 331,806 60,1 103,-5 141,-18 z M 1322,3377 c 243,-120 341,-393 227,-632 -54,-115 -144,-195 -274,-245 -79,-30 -214,-33 -295,-6 -128,42 -234,139 -293,266 -39,85 -50,236 -22,321 48,149 157,263 304,316 57,20 81,23 172,21 99,-3 110,-6 181,-41 z m 2171,22 c 150,-50 268,-171 311,-318 34,-115 13,-276 -48,-375 -101,-163 -298,-257 -478,-227 -298,49 -479,352 -376,629 72,194 237,311 441,312 63,0 105,-6 150,-21 z M 2286,2735 c 56,-16 96,-52 118,-107 42,-100 -13,-213 -119,-243 -45,-13 -57,-13 -101,0 -109,32 -162,148 -115,250 24,52 59,83 112,100 56,17 47,17 105,0 z m -587,-646 c 82,-29 132,-62 194,-129 84,-90 127,-197 127,-315 -1,-142 -47,-252 -147,-345 -103,-97 -200,-134 -343,-132 -322,4 -546,344 -425,644 96,238 355,359 594,277 z m 1291,21 c 319,-51 497,-385 359,-675 -79,-166 -236,-266 -419,-267 -176,-1 -323,80 -418,231 -68,109 -81,293 -30,418 65,155 202,264 368,293 64,11 68,11 140,0 z"
       id="path4" />
  </g>
</svg>
