<svg width="0" height="0" class="hidden">
  <symbol version="1.1" xmlns="http://www.w3.org/2000/svg" viewBox="0 0 36 36" id="pause">
    <title>pause</title>
    <path  d="M15.047 34.594v-33.194c0-0.618-0.498-1.116-1.126-1.116h-6.607c-0.628 0-1.126 0.498-1.126 1.116v33.194c0 0.618 0.498 1.126 1.126 1.126h6.607c0.628 0 1.126-0.498 1.126-1.126z"></path>
    <path  d="M28.687 0.281h-6.607c-0.618 0-1.126 0.498-1.126 1.116v33.194c0 0.618 0.498 1.126 1.126 1.126h6.607c0.618 0 1.126-0.498 1.126-1.126v-33.194c0-0.618-0.498-1.116-1.126-1.116z"></path>
  </symbol>
  <symbol version="1.1" xmlns="http://www.w3.org/2000/svg" viewBox="0 0 36 36" id="mute">
    <title>mute</title>
    <path  d="M18.405 2.387c-0.445 0-0.831 0.163-1.156 0.488l-8.556 8.556h-6.732c-0.446 0-0.831 0.163-1.156 0.488s-0.488 0.711-0.488 1.156v9.865c0 0.445 0.163 0.831 0.488 1.156s0.711 0.488 1.156 0.488h6.732l8.556 8.556c0.326 0.325 0.711 0.488 1.156 0.488s0.831-0.163 1.156-0.488 0.488-0.711 0.488-1.156v-27.955c0-0.445-0.163-0.831-0.488-1.156s-0.711-0.488-1.156-0.488z"></path>
    <path  d="M31.902 18.679l3.468-3.468c0.22-0.22 0.33-0.488 0.33-0.802s-0.11-0.582-0.33-0.802l-1.604-1.604c-0.22-0.22-0.488-0.33-0.802-0.33s-0.582 0.11-0.802 0.33l-3.468 3.468-3.468-3.468c-0.22-0.22-0.488-0.33-0.802-0.33s-0.582 0.11-0.802 0.33l-1.604 1.604c-0.22 0.22-0.33 0.488-0.33 0.802s0.11 0.582 0.33 0.802l3.468 3.468-3.468 3.468c-0.22 0.22-0.33 0.488-0.33 0.802s0.11 0.582 0.33 0.802l1.604 1.604c0.22 0.22 0.488 0.33 0.802 0.33s0.582-0.11 0.802-0.33l3.468-3.468 3.468 3.468c0.22 0.22 0.487 0.33 0.802 0.33s0.582-0.11 0.802-0.33l1.604-1.604c0.22-0.22 0.33-0.488 0.33-0.802s-0.11-0.582-0.33-0.802l-3.468-3.468z"></path>
  </symbol>
  <symbol  xmlns="http://www.w3.org/2000/svg" viewBox="0 0 23 30" id="play">
    <g clip-path="url(#clip0)">
      <path d="M22.35 14.75L0 0C0 22.23 0 11.32 0 29.49L22.35 14.75Z" ></path>
    </g>
    <defs>
      <clipPath id="clip0">
        <rect width="22.35" height="29.49" ></rect>
      </clipPath>
    </defs>
  </symbol>
  <symbol version="1.1" xmlns="http://www.w3.org/2000/svg" viewBox="0 0 254 254" id="play-btn">
    <title>play3</title>
    <path  d="M112.209 19.848c-0.841 0.203-4.973 0.928-9.181 1.61-79.032 12.819-116.413 109.221-67.485 174.036 15.237 20.184 50.228 43.039 51.961 33.939 0.217-1.137-1.866-2.575-7.036-4.858-21.21-9.368-40.403-27.824-50.875-48.92-38.034-76.618 27.038-163.321 112.012-149.247 12.765 2.115 14.982-2.293 2.472-4.916-5.694-1.194-28.796-2.385-31.868-1.643zM112.719 42.441c-14.943 2.202-34.172 9.853-34.172 13.597 0 2.905 2.158 2.68 10.045-1.047 43.201-20.411 95.797 1.922 111.446 47.322 26.011 75.463-59.858 139.343-125.061 93.034-36.232-25.733-44.587-76.844-18.577-113.647 6.902-9.766 3.27-13.895-3.778-4.294-43.425 59.158 1.913 142.717 75.175 138.546 73.956-4.21 109.316-92.829 58.424-146.419-18.657-19.646-48.755-30.74-73.501-27.094zM201.636 55.764c-1.517 1.517-0.358 4.232 4.498 10.541 36 46.77 24.213 116.679-25.216 149.569-22.273 14.82-41.829 18.928-78.399 16.469-3.444-0.232-4.081 0.032-4.081 1.692 0 7.539 43.772 5.495 65.475-3.059 63.64-25.081 88.732-106.043 50.371-162.531-7.279-10.718-10.94-14.389-12.649-12.68zM93.24 93.953c-1.809 1.998-1.964 4.341-2.241 33.859-0.455 48.527-5.285 47.060 53.309 16.191 28.556-15.045 28.716-14.573-12.24-36.057-32.021-16.797-35.238-17.957-38.828-13.993zM128.627 112.312c31.112 16.25 31.274 16.351 29.098 18.157-2.44 2.026-57.918 30.704-59.395 30.704-1.186 0-1.422-5.333-1.422-32.132 0-22.539 0.333-32.133 1.114-32.133 0.612 0 14.385 6.932 30.606 15.404z"></path>
  </symbol>
  <symbol version="1.1" xmlns="http://www.w3.org/2000/svg" viewBox="0 0 36 36" id="volume">
    <title>volume</title>
    <path d="M17.995 2.95c-0.429 0-0.801 0.157-1.115 0.471l-8.248 8.248h-6.489c-0.43 0-0.801 0.157-1.115 0.471s-0.471 0.686-0.471 1.115v9.51c0 0.429 0.157 0.801 0.471 1.115s0.686 0.471 1.115 0.471h6.489l8.248 8.248c0.314 0.314 0.685 0.471 1.115 0.471s0.801-0.157 1.115-0.471 0.471-0.685 0.471-1.115v-26.948c0-0.429-0.157-0.801-0.47-1.115s-0.685-0.471-1.115-0.471z"></path>
    <path  d="M28.040 21.515c0.702-1.081 1.053-2.249 1.053-3.505s-0.351-2.428-1.053-3.518c-0.702-1.090-1.63-1.858-2.787-2.304-0.165-0.082-0.372-0.124-0.619-0.124-0.429 0-0.801 0.153-1.115 0.458-0.314 0.307-0.471 0.681-0.471 1.127 0 0.347 0.099 0.64 0.298 0.879s0.437 0.446 0.718 0.619c0.28 0.173 0.561 0.363 0.842 0.57s0.52 0.499 0.718 0.879c0.198 0.38 0.297 0.851 0.297 1.412s-0.099 1.032-0.297 1.412c-0.198 0.38-0.437 0.673-0.718 0.879s-0.562 0.397-0.842 0.57c-0.281 0.173-0.52 0.38-0.718 0.619s-0.298 0.533-0.298 0.879c0 0.446 0.158 0.821 0.471 1.127 0.314 0.304 0.685 0.459 1.115 0.459 0.247 0 0.454-0.041 0.619-0.124 1.156-0.463 2.085-1.235 2.787-2.317z"></path>
    <path  d="M33.327 25.008c1.404-2.137 2.106-4.471 2.106-6.999 0-2.527-0.702-4.859-2.106-6.999-1.404-2.137-3.262-3.695-5.573-4.669-0.214-0.082-0.429-0.124-0.644-0.124-0.429 0-0.801 0.157-1.115 0.471s-0.47 0.685-0.47 1.115c0 0.644 0.322 1.131 0.966 1.462 0.924 0.479 1.552 0.842 1.882 1.090 1.222 0.892 2.176 2.010 2.861 3.356s1.028 2.778 1.028 4.299c0 1.519-0.343 2.952-1.028 4.299-0.685 1.346-1.639 2.464-2.861 3.356-0.33 0.248-0.958 0.611-1.882 1.090-0.644 0.331-0.966 0.817-0.966 1.462 0 0.429 0.157 0.801 0.47 1.115s0.693 0.471 1.139 0.471c0.198 0 0.405-0.042 0.619-0.124 2.311-0.975 4.17-2.531 5.573-4.67z"></path>
  </symbol>
</svg>